<svg width="85" height="85" viewBox="0 0 85 85" fill="none" xmlns="http://www.w3.org/2000/svg">
<g clip-path="url(#clip0_89_8)">
<circle cx="42.5" cy="42.5" r="40.8" stroke="white" stroke-width="3.4"/>
<path d="M18.4077 39.2406H18.6883V41H13.5181V40.7194L14.1118 40.6546C14.2269 40.6402 14.2952 40.6114 14.3168 40.5683C14.3384 40.5251 14.3492 40.3776 14.3492 40.1257V34.5346C14.3492 34.2827 14.3384 34.1352 14.3168 34.092C14.2952 34.0488 14.2269 34.0201 14.1118 34.0057L13.5181 33.9517V33.6603H18.548V35.4196H18.2781L17.9651 34.2863C17.9435 34.1999 17.9183 34.1388 17.8896 34.1028C17.868 34.0596 17.8212 34.0344 17.7492 34.0272C17.6773 34.0129 17.555 34.0057 17.3823 34.0057H15.2883V37.125H16.7346C16.9073 37.125 17.0297 37.1215 17.1016 37.1143C17.1736 37.0999 17.2204 37.0747 17.2419 37.0387C17.2707 36.9955 17.2959 36.9308 17.3175 36.8444L17.5226 36.0349H17.8032V38.5606H17.5226L17.3175 37.7511C17.2959 37.6647 17.2707 37.6036 17.2419 37.5676C17.2204 37.5244 17.1736 37.4992 17.1016 37.492C17.0297 37.4776 16.9073 37.4704 16.7346 37.4704H15.2883V40.6546H17.5118C17.6845 40.6546 17.8068 40.651 17.8788 40.6438C17.9507 40.6294 17.9975 40.6042 18.0191 40.5683C18.0479 40.5251 18.0731 40.4603 18.0946 40.374L18.4077 39.2406ZM19.5634 33.3041V33.0126H21.2796V40.1257C21.2796 40.3776 21.2904 40.5251 21.312 40.5683C21.3336 40.6114 21.402 40.6402 21.5171 40.6546L22.1108 40.7194V41H19.5634V40.7194L20.1571 40.6546C20.2722 40.6402 20.3406 40.6114 20.3622 40.5683C20.3838 40.5251 20.3946 40.3776 20.3946 40.1257V33.8869C20.3946 33.6351 20.3838 33.4876 20.3622 33.4444C20.3406 33.4012 20.2722 33.3724 20.1571 33.358L19.5634 33.3041ZM25.387 33.9517V33.6603H27.9883V33.9517L27.3946 34.0057C27.2795 34.0201 27.2111 34.0488 27.1895 34.092C27.168 34.1352 27.1572 34.2827 27.1572 34.5346V40.1257C27.1572 40.3776 27.168 40.5251 27.1895 40.5683C27.2111 40.6114 27.2795 40.6402 27.3946 40.6546L27.9883 40.7194V41H25.387V40.7194L25.9806 40.6546C26.0958 40.6402 26.1641 40.6114 26.1857 40.5683C26.2073 40.5251 26.2181 40.3776 26.2181 40.1257V34.5346C26.2181 34.2827 26.2073 34.1352 26.1857 34.092C26.1641 34.0488 26.0958 34.0201 25.9806 34.0057L25.387 33.9517ZM34.9169 40.7194V41H32.3696V40.7194L32.9633 40.6546C33.0784 40.6402 33.1468 40.6114 33.1683 40.5683C33.1899 40.5251 33.2007 40.3776 33.2007 40.1257V37.4381C33.2007 36.9056 33.1144 36.5314 32.9417 36.3155C32.769 36.0924 32.5207 35.9809 32.1969 35.9809C31.9594 35.9809 31.6968 36.0529 31.409 36.1968C31.1211 36.3407 30.8513 36.6213 30.5994 37.0387V40.1257C30.5994 40.3776 30.6102 40.5251 30.6318 40.5683C30.6534 40.6114 30.7218 40.6402 30.8369 40.6546L31.4306 40.7194V41H28.8832V40.7194L29.4769 40.6546C29.592 40.6402 29.6604 40.6114 29.682 40.5683C29.7036 40.5251 29.7144 40.3776 29.7144 40.1257V36.5314C29.7144 36.2795 29.7036 36.132 29.682 36.0889C29.6604 36.0457 29.592 36.0169 29.4769 36.0025L28.8832 35.9485V35.6571H30.5455V36.5314C30.8045 36.186 31.0959 35.9377 31.4198 35.7866C31.7508 35.6283 32.0818 35.5492 32.4128 35.5492C32.9453 35.5492 33.3554 35.7147 33.6433 36.0457C33.9383 36.3695 34.0858 36.83 34.0858 37.4273V40.1257C34.0858 40.3776 34.0966 40.5251 34.1182 40.5683C34.1398 40.6114 34.2081 40.6402 34.3233 40.6546L34.9169 40.7194ZM37.8225 38.8197L37.1641 38.6578C36.2646 38.4275 35.8148 37.9094 35.8148 37.1035C35.8148 36.8372 35.876 36.5854 35.9983 36.3479C36.1207 36.1104 36.3149 35.9197 36.5812 35.7758C36.8546 35.6247 37.2036 35.5492 37.6282 35.5492C38.1031 35.5492 38.4845 35.6283 38.7723 35.7866C39.0602 35.9449 39.2616 36.15 39.3768 36.4019C39.4919 36.6537 39.5279 36.9272 39.4847 37.2222L38.6428 37.3733C38.7291 36.9056 38.6788 36.5422 38.4917 36.2831C38.3118 36.0241 38.0132 35.8946 37.5958 35.8946C37.272 35.8946 37.0129 35.9773 36.8187 36.1428C36.6244 36.3011 36.5272 36.535 36.5272 36.8444C36.5272 37.0747 36.5992 37.2798 36.7431 37.4597C36.887 37.6324 37.1281 37.7619 37.4663 37.8482L38.1463 38.0101C38.6212 38.1253 38.9882 38.3088 39.2472 38.5606C39.5135 38.8125 39.6466 39.1435 39.6466 39.5536C39.6466 40.0142 39.4775 40.3884 39.1393 40.6762C38.8083 40.964 38.3334 41.1079 37.7145 41.1079C37.4195 41.1079 37.1317 41.0648 36.851 40.9784C36.5776 40.8849 36.3365 40.741 36.1279 40.5467C35.9264 40.3452 35.7789 40.0861 35.6853 39.7695L36.2898 39.5536C36.3689 40.007 36.5416 40.3236 36.8079 40.5035C37.0741 40.6834 37.3799 40.7733 37.7253 40.7733C37.9268 40.7733 38.1175 40.741 38.2974 40.6762C38.4845 40.6114 38.6356 40.5107 38.7507 40.374C38.8659 40.23 38.9234 40.0466 38.9234 39.8235C38.9234 39.5932 38.8443 39.3953 38.686 39.2298C38.5277 39.0643 38.2398 38.9276 37.8225 38.8197ZM44.2192 39.899C44.1113 40.3164 43.9422 40.6222 43.7119 40.8165C43.4816 41.0108 43.1866 41.1079 42.8268 41.1079C42.4814 41.1079 42.2008 41.0324 41.9849 40.8813C41.769 40.723 41.6107 40.5179 41.51 40.266C41.4092 40.0142 41.3589 39.7515 41.3589 39.4781V36.5314C41.3589 36.2795 41.3481 36.132 41.3265 36.0889C41.3121 36.0457 41.2437 36.0169 41.1214 36.0025L40.5277 35.9485V35.6571H41.3589V34.2431L42.2439 34.0596V35.6571H44.0033V36.0025H42.2439V39.5644C42.2439 40.0178 42.3051 40.3308 42.4274 40.5035C42.557 40.6762 42.7261 40.7625 42.9347 40.7625C43.1434 40.7625 43.3017 40.6834 43.4097 40.5251C43.5248 40.3668 43.6075 40.1077 43.6579 39.7479L44.2192 39.899ZM49.2784 41.0756C48.7171 41.0756 48.3861 40.8165 48.2854 40.2984C48.0335 40.5862 47.7565 40.7949 47.4543 40.9244C47.1521 41.0468 46.8534 41.1079 46.5584 41.1079C46.0547 41.1079 45.6841 40.9676 45.4466 40.687C45.2092 40.4063 45.0904 40.0681 45.0904 39.6724C45.0904 39.2478 45.2344 38.9132 45.5222 38.6686C45.8172 38.4167 46.3245 38.2908 47.0441 38.2908H48.2638V37.4165C48.2638 36.8408 48.1631 36.445 47.9616 36.2292C47.7673 36.0061 47.501 35.8946 47.1628 35.8946C46.947 35.8946 46.7527 35.9377 46.58 36.0241C46.4073 36.1104 46.2814 36.2687 46.2022 36.499C46.1302 36.7221 46.123 37.0495 46.1806 37.4812L45.3279 37.3517C45.2919 37.0135 45.3351 36.7113 45.4574 36.445C45.587 36.1716 45.7956 35.9557 46.0835 35.7974C46.3785 35.6319 46.7455 35.5492 47.1844 35.5492C47.7097 35.5492 48.1127 35.6391 48.3933 35.819C48.674 35.9917 48.8683 36.2184 48.9762 36.499C49.0913 36.7796 49.1489 37.0855 49.1489 37.4165V39.8451C49.1489 40.2121 49.1885 40.4423 49.2676 40.5359C49.354 40.6294 49.4475 40.6762 49.5483 40.6762C49.613 40.6762 49.6814 40.6618 49.7533 40.633C49.8253 40.597 49.9045 40.5431 49.9908 40.4711L50.1851 40.741C50.0772 40.8345 49.9476 40.9137 49.7965 40.9784C49.6526 41.0432 49.4799 41.0756 49.2784 41.0756ZM46.8606 40.6546C47.0621 40.6546 47.278 40.6006 47.5082 40.4927C47.7457 40.3776 47.9976 40.1509 48.2638 39.8127V38.6362H47.1628C46.7599 38.6362 46.4648 38.7189 46.2778 38.8844C46.0979 39.0427 46.0079 39.291 46.0079 39.6292C46.0079 39.953 46.0763 40.2049 46.213 40.3848C46.3569 40.5647 46.5728 40.6546 46.8606 40.6546ZM50.5849 33.3041V33.0126H52.3011V40.1257C52.3011 40.3776 52.3119 40.5251 52.3335 40.5683C52.3551 40.6114 52.4234 40.6402 52.5385 40.6546L53.1322 40.7194V41H50.5849V40.7194L51.1785 40.6546C51.2937 40.6402 51.362 40.6114 51.3836 40.5683C51.4052 40.5251 51.416 40.3776 51.416 40.1257V33.8869C51.416 33.6351 51.4052 33.4876 51.3836 33.4444C51.362 33.4012 51.2937 33.3724 51.1785 33.358L50.5849 33.3041ZM58.2697 41.0756C57.7084 41.0756 57.3774 40.8165 57.2767 40.2984C57.0248 40.5862 56.7478 40.7949 56.4455 40.9244C56.1433 41.0468 55.8447 41.1079 55.5497 41.1079C55.046 41.1079 54.6754 40.9676 54.4379 40.687C54.2004 40.4063 54.0817 40.0681 54.0817 39.6724C54.0817 39.2478 54.2256 38.9132 54.5135 38.6686C54.8085 38.4167 55.3158 38.2908 56.0354 38.2908H57.2551V37.4165C57.2551 36.8408 57.1543 36.445 56.9528 36.2292C56.7586 36.0061 56.4923 35.8946 56.1541 35.8946C55.9382 35.8946 55.7439 35.9377 55.5712 36.0241C55.3985 36.1104 55.2726 36.2687 55.1935 36.499C55.1215 36.7221 55.1143 37.0495 55.1719 37.4812L54.3192 37.3517C54.2832 37.0135 54.3264 36.7113 54.4487 36.445C54.5782 36.1716 54.7869 35.9557 55.0747 35.7974C55.3698 35.6319 55.7368 35.5492 56.1757 35.5492C56.701 35.5492 57.104 35.6391 57.3846 35.819C57.6652 35.9917 57.8595 36.2184 57.9675 36.499C58.0826 36.7796 58.1402 37.0855 58.1402 37.4165V39.8451C58.1402 40.2121 58.1797 40.4423 58.2589 40.5359C58.3452 40.6294 58.4388 40.6762 58.5395 40.6762C58.6043 40.6762 58.6726 40.6618 58.7446 40.633C58.8166 40.597 58.8957 40.5431 58.9821 40.4711L59.1764 40.741C59.0684 40.8345 58.9389 40.9137 58.7878 40.9784C58.6439 41.0432 58.4712 41.0756 58.2697 41.0756ZM55.8519 40.6546C56.0534 40.6546 56.2692 40.6006 56.4995 40.4927C56.737 40.3776 56.9888 40.1509 57.2551 39.8127V38.6362H56.1541C55.7511 38.6362 55.4561 38.7189 55.269 38.8844C55.0891 39.0427 54.9992 39.291 54.9992 39.6292C54.9992 39.953 55.0675 40.2049 55.2043 40.3848C55.3482 40.5647 55.5641 40.6546 55.8519 40.6546ZM65.2321 40.7302V41H63.5698V40.1473C63.3468 40.4783 63.0985 40.723 62.8251 40.8813C62.5588 41.0324 62.2602 41.1079 61.9292 41.1079C61.3103 41.1079 60.8282 40.8777 60.4828 40.4171C60.1446 39.9494 59.9755 39.291 59.9755 38.4419V38.226C59.9755 37.4129 60.1734 36.7653 60.5692 36.2831C60.9721 35.7938 61.5226 35.5492 62.2206 35.5492C62.7315 35.5492 63.1633 35.7075 63.5159 36.0241V33.8869C63.5159 33.6351 63.5051 33.4876 63.4835 33.4444C63.4619 33.4012 63.3935 33.3724 63.2784 33.358L62.6847 33.3041V33.0126H64.4009V40.1257C64.4009 40.3776 64.4117 40.5251 64.4333 40.5683C64.4549 40.6114 64.5233 40.6402 64.6384 40.6546L65.2321 40.7302ZM60.947 38.7657C60.947 39.4421 61.0441 39.9386 61.2384 40.2552C61.4399 40.5718 61.7169 40.7302 62.0695 40.7302C62.2998 40.7302 62.5372 40.6582 62.7819 40.5143C63.0265 40.3704 63.2712 40.0789 63.5159 39.64V36.553C63.1992 36.1284 62.7855 35.9162 62.2746 35.9162C61.814 35.9162 61.4758 36.0924 61.26 36.445C61.0513 36.7976 60.947 37.2834 60.947 37.9022V38.7657ZM70.878 38.2152V38.4311C70.878 39.2442 70.6729 39.8954 70.2628 40.3848C69.8598 40.8669 69.2842 41.1079 68.5358 41.1079C67.7946 41.1079 67.219 40.8669 66.8088 40.3848C66.4058 39.8954 66.2043 39.2442 66.2043 38.4311V38.2152C66.2043 37.4093 66.4058 36.7653 66.8088 36.2831C67.2118 35.7938 67.7874 35.5492 68.5358 35.5492C69.2842 35.5492 69.8598 35.7938 70.2628 36.2831C70.6729 36.7653 70.878 37.4093 70.878 38.2152ZM69.9066 37.9993C69.9066 37.251 69.7879 36.7149 69.5504 36.3911C69.3201 36.0601 68.9819 35.8946 68.5358 35.8946C68.0968 35.8946 67.7586 36.0601 67.5212 36.3911C67.2909 36.7149 67.1758 37.251 67.1758 37.9993V38.647C67.1758 39.4025 67.2909 39.9458 67.5212 40.2768C67.7586 40.6006 68.0968 40.7625 68.5358 40.7625C68.9819 40.7625 69.3201 40.6006 69.5504 40.2768C69.7879 39.9458 69.9066 39.4025 69.9066 38.647V37.9993ZM71.9211 35.9485V35.6571H73.5834V36.5206C73.8352 36.1824 74.0871 35.9377 74.3389 35.7866C74.598 35.6283 74.8606 35.5492 75.1269 35.5492C75.3571 35.5492 75.573 35.6175 75.7745 35.7542C75.976 35.891 76.1451 36.1104 76.2818 36.4127L75.5802 36.8336C75.4723 36.5746 75.35 36.3947 75.2132 36.2939C75.0765 36.1932 74.9254 36.1428 74.7599 36.1428C74.58 36.1428 74.4001 36.2004 74.2202 36.3155C74.0475 36.4307 73.8532 36.6465 73.6373 36.9631V40.1257C73.6373 40.3776 73.6481 40.5287 73.6697 40.579C73.6913 40.6222 73.7597 40.6474 73.8748 40.6546L74.6843 40.7194V41H71.9211V40.7194L72.5148 40.6546C72.6299 40.6402 72.6983 40.6114 72.7199 40.5683C72.7415 40.5251 72.7523 40.3776 72.7523 40.1257V36.5314C72.7523 36.2795 72.7415 36.132 72.7199 36.0889C72.6983 36.0457 72.6299 36.0169 72.5148 36.0025L71.9211 35.9485ZM18.9581 53.7302V54H17.2959V53.1473C17.0728 53.4783 16.8246 53.723 16.5511 53.8813C16.2849 54.0324 15.9863 54.1079 15.6553 54.1079C15.0364 54.1079 14.5543 53.8777 14.2089 53.4171C13.8707 52.9494 13.7016 52.291 13.7016 51.4419V51.226C13.7016 50.4129 13.8995 49.7653 14.2952 49.2831C14.6982 48.7938 15.2487 48.5492 15.9467 48.5492C16.4576 48.5492 16.8893 48.7075 17.2419 49.0241V46.8869C17.2419 46.6351 17.2311 46.4876 17.2096 46.4444C17.188 46.4012 17.1196 46.3724 17.0045 46.358L16.4108 46.3041V46.0126H18.127V53.1257C18.127 53.3776 18.1378 53.5251 18.1594 53.5683C18.181 53.6114 18.2494 53.6402 18.3645 53.6546L18.9581 53.7302ZM14.673 51.7657C14.673 52.4421 14.7702 52.9386 14.9645 53.2552C15.1659 53.5718 15.443 53.7302 15.7956 53.7302C16.0258 53.7302 16.2633 53.6582 16.508 53.5143C16.7526 53.3704 16.9973 53.0789 17.2419 52.64V49.553C16.9253 49.1284 16.5116 48.9162 16.0007 48.9162C15.5401 48.9162 15.2019 49.0924 14.986 49.445C14.7774 49.7976 14.673 50.2834 14.673 50.9022V51.7657ZM24.2371 52.7695C24.1076 53.2588 23.8629 53.6042 23.5031 53.8057C23.1506 54.0072 22.7584 54.1079 22.3266 54.1079C21.5279 54.1079 20.9306 53.8669 20.5349 53.3848C20.1391 52.8954 19.9412 52.2442 19.9412 51.4311V51.2152C19.9412 50.4093 20.1319 49.7653 20.5133 49.2831C20.8947 48.7938 21.4487 48.5492 22.1755 48.5492C22.5641 48.5492 22.9167 48.6283 23.2333 48.7866C23.5571 48.9449 23.8126 49.1788 23.9997 49.4882C24.1939 49.7976 24.2911 50.1826 24.2911 50.6431C24.2911 50.859 24.2695 51.0857 24.2263 51.3232H20.9127V51.647C20.9127 52.4025 21.0278 52.9458 21.2581 53.2768C21.4955 53.6006 21.8769 53.7625 22.4022 53.7625C22.7332 53.7625 23.0066 53.6762 23.2225 53.5035C23.4456 53.3308 23.5931 53.0322 23.6651 52.6076L24.2371 52.7695ZM22.1755 48.8946C21.751 48.8946 21.4343 49.0565 21.2257 49.3803C21.017 49.7041 20.9127 50.2366 20.9127 50.9778H23.3412V50.9454C23.3556 50.8518 23.3664 50.7619 23.3736 50.6755C23.3808 50.582 23.3844 50.4992 23.3844 50.4273C23.3844 49.8876 23.2729 49.499 23.0498 49.2616C22.8267 49.0169 22.5353 48.8946 22.1755 48.8946ZM30.9827 54.1079C30.0688 54.1079 29.3708 53.8021 28.8887 53.1905C28.4138 52.5788 28.1763 51.7585 28.1763 50.7295V49.92C28.1763 49.2436 28.2771 48.6535 28.4786 48.1498C28.6872 47.6461 28.9931 47.2539 29.396 46.9733C29.799 46.6926 30.2919 46.5523 30.8748 46.5523C31.4144 46.5523 31.8606 46.6603 32.2132 46.8761C32.5658 47.0848 32.8212 47.3619 32.9795 47.7073C33.1378 48.0455 33.1882 48.416 33.1307 48.819L32.2024 49.0457C32.2815 48.3549 32.2024 47.826 31.9649 47.459C31.7275 47.0848 31.3641 46.8977 30.8748 46.8977C30.3279 46.8977 29.9105 47.092 29.6227 47.4806C29.3421 47.8692 29.2017 48.5024 29.2017 49.3803V51.2692C29.2017 52.1543 29.3528 52.7911 29.6551 53.1797C29.9573 53.5683 30.407 53.7625 31.0043 53.7625C31.2417 53.7625 31.4684 53.723 31.6843 53.6438C31.9002 53.5575 32.0837 53.4135 32.2348 53.2121C32.3859 53.0106 32.4794 52.7299 32.5154 52.3701L33.1846 52.5428C33.0263 53.1185 32.7457 53.5251 32.3427 53.7625C31.9469 53.9928 31.4936 54.1079 30.9827 54.1079ZM38.5058 54.0756C37.9445 54.0756 37.6135 53.8165 37.5127 53.2984C37.2609 53.5862 36.9838 53.7949 36.6816 53.9244C36.3794 54.0468 36.0808 54.1079 35.7857 54.1079C35.282 54.1079 34.9115 53.9676 34.674 53.687C34.4365 53.4063 34.3178 53.0681 34.3178 52.6724C34.3178 52.2478 34.4617 51.9132 34.7495 51.6686C35.0446 51.4167 35.5519 51.2908 36.2715 51.2908H37.4912V50.4165C37.4912 49.8408 37.3904 49.445 37.1889 49.2292C36.9946 49.0061 36.7284 48.8946 36.3902 48.8946C36.1743 48.8946 35.98 48.9377 35.8073 49.0241C35.6346 49.1104 35.5087 49.2687 35.4296 49.499C35.3576 49.7221 35.3504 50.0495 35.408 50.4812L34.5553 50.3517C34.5193 50.0135 34.5625 49.7113 34.6848 49.445C34.8143 49.1716 35.023 48.9557 35.3108 48.7974C35.6058 48.6319 35.9728 48.5492 36.4118 48.5492C36.9371 48.5492 37.34 48.6391 37.6207 48.819C37.9013 48.9917 38.0956 49.2184 38.2035 49.499C38.3187 49.7796 38.3762 50.0855 38.3762 50.4165V52.8451C38.3762 53.2121 38.4158 53.4423 38.495 53.5359C38.5813 53.6294 38.6749 53.6762 38.7756 53.6762C38.8404 53.6762 38.9087 53.6618 38.9807 53.633C39.0526 53.597 39.1318 53.5431 39.2182 53.4711L39.4124 53.741C39.3045 53.8345 39.175 53.9137 39.0239 53.9784C38.8799 54.0432 38.7072 54.0756 38.5058 54.0756ZM36.088 53.6546C36.2895 53.6546 36.5053 53.6006 36.7356 53.4927C36.9731 53.3776 37.2249 53.1509 37.4912 52.8127V51.6362H36.3902C35.9872 51.6362 35.6922 51.7189 35.5051 51.8844C35.3252 52.0427 35.2353 52.291 35.2353 52.6292C35.2353 52.953 35.3036 53.2049 35.4403 53.3848C35.5843 53.5647 35.8001 53.6546 36.088 53.6546ZM39.8122 46.3041V46.0126H41.5284V53.1257C41.5284 53.3776 41.5392 53.5251 41.5608 53.5683C41.5824 53.6114 41.6508 53.6402 41.7659 53.6546L42.3595 53.7194V54H39.8122V53.7194L40.4059 53.6546C40.521 53.6402 40.5894 53.6114 40.611 53.5683C40.6326 53.5251 40.6433 53.3776 40.6433 53.1257V46.8869C40.6433 46.6351 40.6326 46.4876 40.611 46.4444C40.5894 46.4012 40.521 46.3724 40.4059 46.358L39.8122 46.3041ZM48.6304 53.7302V54H46.9681V53.1473C46.7451 53.4783 46.4968 53.723 46.2234 53.8813C45.9571 54.0324 45.6585 54.1079 45.3275 54.1079C44.7086 54.1079 44.2265 53.8777 43.8811 53.4171C43.5429 52.9494 43.3738 52.291 43.3738 51.4419V51.226C43.3738 50.4129 43.5717 49.7653 43.9675 49.2831C44.3704 48.7938 44.9209 48.5492 45.6189 48.5492C46.1298 48.5492 46.5616 48.7075 46.9142 49.0241V46.8869C46.9142 46.6351 46.9034 46.4876 46.8818 46.4444C46.8602 46.4012 46.7918 46.3724 46.6767 46.358L46.0831 46.3041V46.0126H47.7993V53.1257C47.7993 53.3776 47.81 53.5251 47.8316 53.5683C47.8532 53.6114 47.9216 53.6402 48.0367 53.6546L48.6304 53.7302ZM44.3453 51.7657C44.3453 52.4421 44.4424 52.9386 44.6367 53.2552C44.8382 53.5718 45.1152 53.7302 45.4678 53.7302C45.6981 53.7302 45.9355 53.6582 46.1802 53.5143C46.4249 53.3704 46.6695 53.0789 46.9142 52.64V49.553C46.5976 49.1284 46.1838 48.9162 45.6729 48.9162C45.2124 48.9162 44.8742 49.0924 44.6583 49.445C44.4496 49.7976 44.3453 50.2834 44.3453 50.9022V51.7657ZM53.9093 52.7695C53.7798 53.2588 53.5352 53.6042 53.1754 53.8057C52.8228 54.0072 52.4306 54.1079 51.9989 54.1079C51.2001 54.1079 50.6029 53.8669 50.2071 53.3848C49.8113 52.8954 49.6134 52.2442 49.6134 51.4311V51.2152C49.6134 50.4093 49.8041 49.7653 50.1855 49.2831C50.5669 48.7938 51.121 48.5492 51.8477 48.5492C52.2363 48.5492 52.5889 48.6283 52.9055 48.7866C53.2293 48.9449 53.4848 49.1788 53.6719 49.4882C53.8662 49.7976 53.9633 50.1826 53.9633 50.6431C53.9633 50.859 53.9417 51.0857 53.8986 51.3232H50.5849V51.647C50.5849 52.4025 50.7 52.9458 50.9303 53.2768C51.1677 53.6006 51.5491 53.7625 52.0744 53.7625C52.4054 53.7625 52.6789 53.6762 52.8947 53.5035C53.1178 53.3308 53.2653 53.0322 53.3373 52.6076L53.9093 52.7695ZM51.8477 48.8946C51.4232 48.8946 51.1066 49.0565 50.8979 49.3803C50.6892 49.7041 50.5849 50.2366 50.5849 50.9778H53.0135V50.9454C53.0279 50.8518 53.0387 50.7619 53.0459 50.6755C53.053 50.582 53.0566 50.4992 53.0566 50.4273C53.0566 49.8876 52.9451 49.499 52.722 49.2616C52.499 49.0169 52.2075 48.8946 51.8477 48.8946ZM54.9821 48.9485V48.6571H56.6444V49.5206C56.8962 49.1824 57.1481 48.9377 57.3999 48.7866C57.659 48.6283 57.9216 48.5492 58.1879 48.5492C58.4182 48.5492 58.634 48.6175 58.8355 48.7542C59.037 48.891 59.2061 49.1104 59.3428 49.4127L58.6412 49.8336C58.5333 49.5746 58.411 49.3947 58.2742 49.2939C58.1375 49.1932 57.9864 49.1428 57.8209 49.1428C57.641 49.1428 57.4611 49.2004 57.2812 49.3155C57.1085 49.4307 56.9142 49.6465 56.6984 49.9631V53.1257C56.6984 53.3776 56.7091 53.5287 56.7307 53.579C56.7523 53.6222 56.8207 53.6474 56.9358 53.6546L57.7453 53.7194V54H54.9821V53.7194L55.5758 53.6546C55.6909 53.6402 55.7593 53.6114 55.7809 53.5683C55.8025 53.5251 55.8133 53.3776 55.8133 53.1257V49.5314C55.8133 49.2795 55.8025 49.132 55.7809 49.0889C55.7593 49.0457 55.6909 49.0169 55.5758 49.0025L54.9821 48.9485ZM64.1514 54.0756C63.5902 54.0756 63.2591 53.8165 63.1584 53.2984C62.9065 53.5862 62.6295 53.7949 62.3273 53.9244C62.0251 54.0468 61.7264 54.1079 61.4314 54.1079C60.9277 54.1079 60.5571 53.9676 60.3196 53.687C60.0822 53.4063 59.9635 53.0681 59.9635 52.6724C59.9635 52.2478 60.1074 51.9132 60.3952 51.6686C60.6902 51.4167 61.1975 51.2908 61.9171 51.2908H63.1368V50.4165C63.1368 49.8408 63.0361 49.445 62.8346 49.2292C62.6403 49.0061 62.3741 48.8946 62.0359 48.8946C61.82 48.8946 61.6257 48.9377 61.453 49.0241C61.2803 49.1104 61.1544 49.2687 61.0752 49.499C61.0033 49.7221 60.9961 50.0495 61.0536 50.4812L60.2009 50.3517C60.1649 50.0135 60.2081 49.7113 60.3304 49.445C60.46 49.1716 60.6686 48.9557 60.9565 48.7974C61.2515 48.6319 61.6185 48.5492 62.0574 48.5492C62.5827 48.5492 62.9857 48.6391 63.2663 48.819C63.547 48.9917 63.7413 49.2184 63.8492 49.499C63.9643 49.7796 64.0219 50.0855 64.0219 50.4165V52.8451C64.0219 53.2121 64.0615 53.4423 64.1406 53.5359C64.227 53.6294 64.3205 53.6762 64.4213 53.6762C64.486 53.6762 64.5544 53.6618 64.6263 53.633C64.6983 53.597 64.7775 53.5431 64.8638 53.4711L65.0581 53.741C64.9502 53.8345 64.8206 53.9137 64.6695 53.9784C64.5256 54.0432 64.3529 54.0756 64.1514 54.0756ZM61.7336 53.6546C61.9351 53.6546 62.151 53.6006 62.3813 53.4927C62.6187 53.3776 62.8706 53.1509 63.1368 52.8127V51.6362H62.0359C61.6329 51.6362 61.3379 51.7189 61.1508 51.8844C60.9709 52.0427 60.8809 52.291 60.8809 52.6292C60.8809 52.953 60.9493 53.2049 61.086 53.3848C61.2299 53.5647 61.4458 53.6546 61.7336 53.6546ZM67.8109 51.8197L67.1525 51.6578C66.253 51.4275 65.8033 50.9094 65.8033 50.1035C65.8033 49.8372 65.8645 49.5854 65.9868 49.3479C66.1091 49.1104 66.3034 48.9197 66.5696 48.7758C66.8431 48.6247 67.1921 48.5492 67.6166 48.5492C68.0916 48.5492 68.4729 48.6283 68.7608 48.7866C69.0486 48.9449 69.2501 49.15 69.3652 49.4019C69.4804 49.6537 69.5163 49.9272 69.4732 50.2222L68.6312 50.3733C68.7176 49.9056 68.6672 49.5422 68.4801 49.2831C68.3002 49.0241 68.0016 48.8946 67.5843 48.8946C67.2604 48.8946 67.0014 48.9773 66.8071 49.1428C66.6128 49.3011 66.5157 49.535 66.5157 49.8444C66.5157 50.0747 66.5876 50.2798 66.7315 50.4597C66.8755 50.6324 67.1165 50.7619 67.4547 50.8482L68.1347 51.0101C68.6097 51.1253 68.9766 51.3088 69.2357 51.5606C69.5019 51.8125 69.6351 52.1435 69.6351 52.5536C69.6351 53.0142 69.466 53.3884 69.1278 53.6762C68.7967 53.964 68.3218 54.1079 67.703 54.1079C67.408 54.1079 67.1201 54.0648 66.8395 53.9784C66.566 53.8849 66.325 53.741 66.1163 53.5467C65.9148 53.3452 65.7673 53.0861 65.6738 52.7695L66.2782 52.5536C66.3574 53.007 66.5301 53.3236 66.7963 53.5035C67.0626 53.6834 67.3684 53.7733 67.7138 53.7733C67.9153 53.7733 68.106 53.741 68.2858 53.6762C68.4729 53.6114 68.624 53.5107 68.7392 53.374C68.8543 53.23 68.9119 53.0466 68.9119 52.8235C68.9119 52.5932 68.8327 52.3953 68.6744 52.2298C68.5161 52.0643 68.2283 51.9276 67.8109 51.8197Z" fill="white"/>
</g>
<defs>
<clipPath id="clip0_89_8">
<rect width="85" height="85" fill="white"/>
</clipPath>
</defs>
</svg>
